<svg width="103" height="100" viewBox="0 0 103 100" fill="none" xmlns="http://www.w3.org/2000/svg">
<g clip-path="url(#clip0_186_2849)">
<path d="M62.4895 0H40.5106C37.1449 0 33.8609 1.06579 31.1377 3.0539L13.3608 16.0381C10.6377 18.0262 8.60806 20.8342 7.56776 24.0418L0.775206 45.0502C-0.265095 48.2681 -0.265095 51.7319 0.775206 54.9498L7.56776 75.9479C8.60806 79.1658 10.6377 81.9635 13.3608 83.9516L31.1377 96.9358C33.8609 98.924 37.1449 99.9898 40.5106 99.9898H62.4895C65.8552 99.9898 69.1393 98.924 71.8624 96.9358L89.6393 83.9516C92.3625 81.9635 94.3921 79.1556 95.4324 75.9479L102.225 54.9498C103.265 51.7319 103.265 48.2681 102.225 45.0502L95.4324 24.0521C94.3921 20.8342 92.3625 18.0365 89.6393 16.0484L71.8624 3.06415C69.1393 1.07604 65.8552 0.010248 62.4895 0.010248V0Z" fill="#222222"/>
<path d="M81.1435 41.9146L84.4582 32.8861L75.4728 36.2167L71.9338 30.0986L62.1835 41.8326L64.2131 22.5766L56.2068 24.3905L51.4949 15.6592L46.7931 24.3905L38.7869 22.5766L40.8165 41.8326L31.056 30.0986L27.517 36.2167L18.5418 32.8861L21.8565 41.9146L15.7575 45.4706L40.2352 66.0076H62.7546L87.2425 45.4706L81.1435 41.9146Z" fill="white"/>
<path d="M47.5989 71.9102H55.391C55.5338 71.9102 55.6562 72.0229 55.6664 72.1664L56.7577 84.0438C56.7679 84.2078 56.6455 84.3512 56.4823 84.3512H46.4975C46.3343 84.3512 46.2017 84.2078 46.2221 84.0438L47.3134 72.1664C47.3236 72.0229 47.446 71.9102 47.5887 71.9102H47.5989Z" fill="white"/>
</g>
<defs>
<clipPath id="clip0_186_2849">
<rect width="103" height="100" fill="white"/>
</clipPath>
</defs>
</svg>
