<svg width="787" height="109" viewBox="0 0 787 109" fill="none" xmlns="http://www.w3.org/2000/svg">
<path d="M83.8419 46.3928L87.0162 37.788L78.4113 40.9623L75.0221 35.1313L65.6847 46.3147L67.6284 27.9622L59.9612 29.691L55.4487 21.3694L50.9461 29.691L43.2789 27.9622L45.2225 46.3147L35.8753 35.1313L32.4861 40.9623L23.891 37.788L27.0654 46.3928L21.2246 49.782L44.6658 69.3554H66.2317L89.6826 49.782L83.8419 46.3928Z" fill="#222222"/>
<path d="M51.7168 74.9812H59.1789C59.3156 74.9812 59.4329 75.0886 59.4426 75.2254L60.4877 86.5455C60.4975 86.7018 60.3803 86.8385 60.224 86.8385H50.6619C50.5057 86.8385 50.3787 86.7018 50.3982 86.5455L51.4433 75.2254C51.4531 75.0886 51.5703 74.9812 51.707 74.9812H51.7168Z" fill="#222222"/>
<path fill-rule="evenodd" clip-rule="evenodd" d="M44.0834 0H67.9977V0.0110877C71.6598 0.0110877 75.233 1.16421 78.196 3.31522L97.5383 17.3633C100.501 19.5143 102.71 22.5413 103.841 26.0228L111.232 48.7415C112.364 52.223 112.364 55.9707 111.232 59.4522L103.841 82.1709C102.71 85.6414 100.501 88.6794 97.5383 90.8304L78.196 104.879C75.233 107.03 71.6598 108.183 67.9977 108.183H44.0834C40.4213 108.183 36.848 107.03 33.8851 104.879L14.5428 90.8304C11.5799 88.6794 9.37153 85.6524 8.23963 82.1709L0.848931 59.4522C-0.282977 55.9707 -0.282977 52.223 0.848931 48.7415L8.23963 26.0117C9.37153 22.5413 11.5799 19.5033 14.5428 17.3522L33.8851 3.30413C36.848 1.15312 40.4213 0 44.0834 0ZM45.5171 6.44234H66.5653V6.45211C69.7884 6.45211 72.9335 7.46789 75.5413 9.36272L92.5655 21.7377C95.1733 23.6325 97.117 26.299 98.1132 29.3659L104.618 49.3788C105.614 52.4457 105.614 55.747 104.618 58.8138L98.1132 78.8268C97.117 81.8839 95.1733 84.5601 92.5655 86.4549L75.5413 98.8299C72.9335 100.725 69.7884 101.74 66.5653 101.74H45.5171C42.2939 101.74 39.1489 100.725 36.541 98.8299L19.5169 86.4549C16.9091 84.5601 14.9654 81.8936 13.9691 78.8268L7.46421 58.8138C6.46796 55.747 6.46796 52.4457 7.46421 49.3788L13.9691 29.3561C14.9654 26.299 16.9091 23.6228 19.5169 21.7279L36.541 9.35295C39.1489 7.45812 42.2939 6.44234 45.5171 6.44234Z" fill="#222222"/>
<path d="M164.977 82.0513C159.921 82.0513 155.345 81.0273 151.249 78.9793C147.153 76.8673 143.889 73.7633 141.457 69.6673C139.089 65.5713 137.905 60.4513 137.905 54.3073C137.969 48.2913 139.185 43.1713 141.553 38.9473C143.921 34.7233 147.153 31.5233 151.249 29.3473C155.409 27.1713 160.081 26.0833 165.265 26.0833C170.257 26.0833 174.513 26.9793 178.033 28.7713C181.553 30.5633 184.369 32.9953 186.481 36.0673C188.657 39.1393 190.065 42.5953 190.705 46.4353H180.625C180.177 43.6193 179.121 41.4113 177.457 39.8113C175.857 38.1473 173.969 36.9953 171.793 36.3553C169.617 35.6513 167.441 35.2993 165.265 35.2993C159.569 35.2993 155.185 36.8993 152.113 40.0993C149.105 43.2993 147.601 47.8113 147.601 53.6353C147.601 59.8433 149.073 64.6113 152.017 67.9393C155.025 71.2673 159.377 72.9313 165.073 72.9313C167.441 72.9313 169.745 72.5793 171.985 71.8753C174.225 71.1073 176.145 69.8913 177.745 68.2273C179.345 66.4993 180.369 64.1953 180.817 61.3153H190.993C190.289 65.2193 188.881 68.7713 186.769 71.9713C184.657 75.1073 181.777 77.5713 178.129 79.3633C174.545 81.1553 170.161 82.0513 164.977 82.0513ZM195.655 81.0913L212.935 27.0433H228.967L246.727 81.0913H236.263L221.095 31.1713L206.023 81.0913H195.655ZM207.271 65.8273L207.367 58.2433H234.727L234.823 65.8273H207.271ZM290.734 27.0433H300.91V81.0913H282.286L263.758 31.3633H263.566V81.0913H253.486V27.0433H270.766L290.542 76.7713H290.734V27.0433ZM308.249 81.0913L325.529 27.0433H341.561L359.321 81.0913H348.857L333.689 31.1713L318.617 81.0913H308.249ZM319.865 65.8273L319.961 58.2433H347.321L347.417 65.8273H319.865ZM376.544 73.0273C378.848 73.0273 380.608 73.0273 381.824 73.0273C383.104 73.0273 384 73.0273 384.512 73.0273C387.712 73.0273 390.56 72.7713 393.056 72.2593C395.552 71.6833 397.696 70.7233 399.488 69.3793C401.344 67.9713 402.72 66.0193 403.616 63.5233C404.576 61.0273 405.056 57.8273 405.056 53.9233C405.056 49.8273 404.224 46.4353 402.56 43.7473C400.896 40.9953 398.528 38.9473 395.456 37.6033C392.384 36.1953 388.736 35.4913 384.512 35.4913H376.544V73.0273ZM415.52 54.0193C415.52 61.1233 414.112 66.6593 411.296 70.6273C408.544 74.5313 404.64 77.2513 399.584 78.7873C394.528 80.3233 388.576 81.0913 381.728 81.0913C380.704 81.0913 379.04 81.0913 376.736 81.0913C374.432 81.0913 371.136 81.0913 366.848 81.0913V27.0433C371.392 27.0433 374.752 27.0433 376.928 27.0433C379.168 27.0433 380.768 27.0433 381.728 27.0433C388.576 27.0433 394.528 28.0673 399.584 30.1153C404.64 32.0993 408.544 35.0753 411.296 39.0433C414.112 43.0113 415.52 48.0033 415.52 54.0193ZM420.843 81.0913L438.123 27.0433H454.155L471.915 81.0913H461.451L446.283 31.1713L431.211 81.0913H420.843ZM432.459 65.8273L432.555 58.2433H459.915L460.011 65.8273H432.459Z" fill="#222222"/>
<path d="M511.617 82.3393C508.801 82.3393 506.081 81.9873 503.457 81.2833C500.833 80.6433 498.433 79.6193 496.257 78.2113C494.081 76.7393 492.353 74.9153 491.073 72.7393C489.793 70.4993 489.121 67.8113 489.057 64.6753H493.473C493.473 64.8673 493.537 65.4433 493.665 66.4033C493.793 67.3633 494.113 68.5153 494.625 69.8593C495.201 71.2033 496.129 72.5153 497.409 73.7953C498.753 75.0753 500.577 76.1633 502.881 77.0593C505.249 77.8913 508.257 78.3073 511.905 78.3073C515.233 78.3073 517.889 77.9233 519.873 77.1553C521.921 76.3233 523.457 75.3313 524.481 74.1793C525.505 72.9633 526.177 71.8113 526.497 70.7233C526.881 69.6353 527.073 68.8033 527.073 68.2273C527.137 65.7953 526.529 63.8433 525.249 62.3713C523.969 60.8353 522.241 59.6193 520.065 58.7233C517.889 57.7633 515.521 56.9633 512.961 56.3233C510.401 55.6833 507.809 55.0113 505.185 54.3073C502.625 53.5393 500.257 52.6113 498.081 51.5233C495.905 50.3713 494.177 48.8673 492.897 47.0113C491.681 45.0913 491.137 42.6273 491.265 39.6193C491.393 36.8033 492.353 34.4033 494.145 32.4193C496.001 30.3713 498.433 28.8033 501.441 27.7153C504.513 26.6273 507.873 26.0833 511.521 26.0833C515.169 26.0833 518.465 26.7553 521.409 28.0993C524.417 29.3793 526.785 31.2993 528.513 33.8593C530.305 36.3553 531.137 39.5233 531.009 43.3633H526.689C526.817 40.6753 526.337 38.4673 525.249 36.7393C524.161 35.0113 522.785 33.6673 521.121 32.7073C519.457 31.7473 517.729 31.1073 515.937 30.7873C514.145 30.4033 512.545 30.2113 511.137 30.2113C506.721 30.2113 503.073 31.1393 500.193 32.9953C497.377 34.7873 495.905 37.0913 495.777 39.9073C495.713 42.3393 496.321 44.2913 497.601 45.7633C498.881 47.2353 500.609 48.4193 502.785 49.3153C504.961 50.1473 507.329 50.8833 509.889 51.5233C512.513 52.1633 515.105 52.8353 517.665 53.5393C520.225 54.2433 522.561 55.1713 524.673 56.3233C526.849 57.4753 528.545 59.0433 529.761 61.0273C531.041 62.9473 531.649 65.4433 531.585 68.5153C531.457 71.4593 530.497 73.9553 528.705 76.0033C526.913 78.0513 524.545 79.6193 521.601 80.7073C518.657 81.7953 515.329 82.3393 511.617 82.3393ZM545.864 81.0913H541.544V27.0433H545.864V81.0913ZM545.096 27.0433H561.512C567.4 27.0433 571.848 28.4513 574.856 31.2673C577.864 34.0193 579.368 38.2113 579.368 43.8433C579.368 49.0913 577.8 53.1553 574.664 56.0353C571.592 58.8513 567.208 60.2593 561.512 60.2593H545V56.5153H561.128C565.736 56.5153 569.256 55.4593 571.688 53.3473C574.12 51.2353 575.336 48.0353 575.336 43.7473C575.336 39.3953 574.152 36.1633 571.784 34.0513C569.416 31.9393 565.864 30.8833 561.128 30.8833H545.096V27.0433ZM587.18 81.0913V27.0433H622.316V31.0753H591.596V51.8113H616.172V55.6513H591.596V77.3473H623.18V81.0913H587.18ZM671.159 27.0433H675.479V81.0913H667.415L636.311 29.0593H636.119V81.0913H631.799V27.0433H639.383L670.967 79.0753H671.159V27.0433ZM692.119 77.2513C695.063 77.2513 697.335 77.2513 698.935 77.2513C700.535 77.2513 701.719 77.2513 702.487 77.2513C706.455 77.2513 710.071 76.9313 713.335 76.2913C716.599 75.6513 719.415 74.4993 721.783 72.8353C724.151 71.1073 725.943 68.7393 727.159 65.7313C728.375 62.6593 728.983 58.7553 728.983 54.0193C728.983 48.7713 727.895 44.4513 725.719 41.0593C723.543 37.6673 720.471 35.1393 716.503 33.4753C712.535 31.8113 707.863 30.9793 702.487 30.9793H692.119V77.2513ZM733.687 54.0193C733.687 61.1233 732.343 66.6593 729.655 70.6273C727.031 74.5313 723.319 77.2513 718.519 78.7873C713.783 80.3233 708.183 81.0913 701.719 81.0913C700.759 81.0913 699.191 81.0913 697.015 81.0913C694.839 81.0913 691.735 81.0913 687.703 81.0913V27.0433C691.991 27.0433 695.191 27.0433 697.303 27.0433C699.415 27.0433 700.887 27.0433 701.719 27.0433C708.183 27.0433 713.783 28.0673 718.519 30.1153C723.319 32.0993 727.031 35.0753 729.655 39.0433C732.343 43.0113 733.687 48.0033 733.687 54.0193ZM762.211 82.3393C759.395 82.3393 756.675 81.9873 754.051 81.2833C751.427 80.6433 749.027 79.6193 746.851 78.2113C744.675 76.7393 742.947 74.9153 741.667 72.7393C740.387 70.4993 739.715 67.8113 739.651 64.6753H744.067C744.067 64.8673 744.131 65.4433 744.259 66.4033C744.387 67.3633 744.707 68.5153 745.219 69.8593C745.795 71.2033 746.723 72.5153 748.003 73.7953C749.347 75.0753 751.171 76.1633 753.475 77.0593C755.843 77.8913 758.851 78.3073 762.499 78.3073C765.827 78.3073 768.483 77.9233 770.467 77.1553C772.515 76.3233 774.051 75.3313 775.075 74.1793C776.099 72.9633 776.771 71.8113 777.091 70.7233C777.475 69.6353 777.667 68.8033 777.667 68.2273C777.731 65.7953 777.123 63.8433 775.843 62.3713C774.563 60.8353 772.835 59.6193 770.659 58.7233C768.483 57.7633 766.115 56.9633 763.555 56.3233C760.995 55.6833 758.403 55.0113 755.779 54.3073C753.219 53.5393 750.851 52.6113 748.675 51.5233C746.499 50.3713 744.771 48.8673 743.491 47.0113C742.275 45.0913 741.731 42.6273 741.859 39.6193C741.987 36.8033 742.947 34.4033 744.739 32.4193C746.595 30.3713 749.027 28.8033 752.035 27.7153C755.107 26.6273 758.467 26.0833 762.115 26.0833C765.763 26.0833 769.059 26.7553 772.003 28.0993C775.011 29.3793 777.379 31.2993 779.107 33.8593C780.899 36.3553 781.731 39.5233 781.603 43.3633H777.283C777.411 40.6753 776.931 38.4673 775.843 36.7393C774.755 35.0113 773.379 33.6673 771.715 32.7073C770.051 31.7473 768.323 31.1073 766.531 30.7873C764.739 30.4033 763.139 30.2113 761.731 30.2113C757.315 30.2113 753.667 31.1393 750.787 32.9953C747.971 34.7873 746.499 37.0913 746.371 39.9073C746.307 42.3393 746.915 44.2913 748.195 45.7633C749.475 47.2353 751.203 48.4193 753.379 49.3153C755.555 50.1473 757.923 50.8833 760.483 51.5233C763.107 52.1633 765.699 52.8353 768.259 53.5393C770.819 54.2433 773.155 55.1713 775.267 56.3233C777.443 57.4753 779.139 59.0433 780.355 61.0273C781.635 62.9473 782.243 65.4433 782.179 68.5153C782.051 71.4593 781.091 73.9553 779.299 76.0033C777.507 78.0513 775.139 79.6193 772.195 80.7073C769.251 81.7953 765.923 82.3393 762.211 82.3393Z" fill="#222222"/>
</svg>
