<svg width="235" height="78" viewBox="0 0 235 78" fill="none" xmlns="http://www.w3.org/2000/svg">
<path d="M20.7151 39.0147C17.2703 39.0147 14.1307 38.317 11.2964 36.9216C8.46203 35.5262 6.19456 33.4332 4.49395 30.6424C2.83694 27.8081 2.03025 24.3197 2.07385 20.1772C2.11746 16.0783 2.94596 12.5898 4.55936 9.71188C6.21636 6.83393 8.46203 4.65366 11.2964 3.17108C14.1307 1.64489 17.3357 0.881799 20.9114 0.881799C24.4434 0.881799 27.4522 1.51408 29.9377 2.77863C32.4232 4.04319 34.3636 5.74379 35.759 7.88046C37.198 10.0171 38.1355 12.3718 38.5715 14.9445H30.3955C30.1339 13.1131 29.4798 11.7395 28.4333 10.8238C27.3868 9.8645 26.1658 9.21042 24.7704 8.86158C23.4187 8.51273 22.1323 8.33831 20.9114 8.33831C17.2921 8.33831 14.545 9.31943 12.6699 11.2817C10.7949 13.2439 9.85741 16.0129 9.85741 19.5885C9.85741 23.4258 10.7731 26.3909 12.6045 28.484C14.436 30.577 17.1831 31.6236 20.846 31.6236C22.1541 31.6236 23.4841 31.4273 24.8358 31.0349C26.2312 30.6424 27.4522 29.9448 28.4987 28.9418C29.5888 27.8953 30.2647 26.4563 30.5263 24.6249H38.7023C38.2663 27.2412 37.3288 29.6613 35.8898 31.8852C34.4508 34.0655 32.4668 35.8097 29.9377 37.1178C27.4522 38.3824 24.378 39.0147 20.7151 39.0147ZM41.7418 38.3606L52.9265 1.53588H65.8773L77.4546 38.3606H69.0169L59.5982 4.80628L50.2448 38.3606H41.7418ZM50.1794 28.5494L49.9832 22.4664H68.9515L68.8861 28.5494H50.1794ZM106.896 1.53588H115.138V38.3606H100.028L90.2827 5.0025H90.1519V38.3606H81.9759V1.53588H95.9732L106.766 34.894H106.896V1.53588ZM119.989 38.3606L131.173 1.53588H144.124L155.701 38.3606H147.264L137.845 4.80628L128.492 38.3606H119.989ZM128.426 28.5494L128.23 22.4664H147.198L147.133 28.5494H128.426ZM168.464 31.8852C169.903 31.8852 170.993 31.8852 171.735 31.8852C172.476 31.8852 172.999 31.8852 173.304 31.8852C175.31 31.8852 177.076 31.7326 178.602 31.4273C180.172 31.0785 181.502 30.468 182.592 29.5959C183.682 28.7238 184.511 27.5029 185.078 25.9331C185.688 24.3633 185.994 22.3356 185.994 19.8501C185.994 17.2774 185.47 15.1407 184.424 13.4401C183.421 11.7395 181.96 10.475 180.041 9.64647C178.166 8.77437 175.921 8.33831 173.304 8.33831H168.464V31.8852ZM194.366 19.9155C194.366 24.7557 193.406 28.5276 191.488 31.2311C189.569 33.891 186.844 35.7443 183.312 36.7908C179.823 37.8373 175.724 38.3606 171.015 38.3606C170.274 38.3606 169.096 38.3606 167.483 38.3606C165.913 38.3606 163.646 38.3606 160.681 38.3606V1.53588C163.82 1.53588 166.153 1.53588 167.679 1.53588C169.205 1.53588 170.317 1.53588 171.015 1.53588C175.724 1.53588 179.823 2.23356 183.312 3.62894C186.844 4.9807 189.569 7.00835 191.488 9.71188C193.406 12.4154 194.366 15.8166 194.366 19.9155ZM198.108 38.3606L209.293 1.53588H222.243L233.821 38.3606H225.383L215.964 4.80628L206.611 38.3606H198.108ZM206.545 28.5494L206.349 22.4664H225.318L225.252 28.5494H206.545Z" fill="#222222"/>
<path d="M14.0108 77.2183C12.5718 77.2183 11.1819 77.0384 9.84105 76.6787C8.50019 76.3516 7.27379 75.8284 6.16185 75.1089C5.04992 74.3567 4.16691 73.4246 3.51283 72.3127C2.85875 71.1681 2.51535 69.7945 2.48265 68.192H4.73923C4.73923 68.2901 4.77193 68.5844 4.83734 69.075C4.90275 69.5656 5.06627 70.1542 5.3279 70.841C5.62224 71.5278 6.09644 72.1982 6.75052 72.8523C7.43731 73.5064 8.36937 74.0624 9.54672 74.5202C10.7568 74.9454 12.2939 75.1579 14.158 75.1579C15.8586 75.1579 17.2158 74.9617 18.2296 74.5693C19.2762 74.1441 20.0611 73.6372 20.5843 73.0485C21.1076 72.4272 21.451 71.8385 21.6145 71.2825C21.8107 70.7265 21.9088 70.3014 21.9088 70.0071C21.9415 68.7643 21.6308 67.7668 20.9768 67.0146C20.3227 66.2297 19.4397 65.6084 18.3277 65.1505C17.2158 64.66 16.0058 64.2512 14.6976 63.9241C13.3894 63.5971 12.0649 63.2537 10.7241 62.8939C9.4159 62.5015 8.20585 62.0273 7.09392 61.4713C5.98198 60.8826 5.09897 60.1141 4.44489 59.1657C3.82352 58.1846 3.54553 56.9255 3.61094 55.3884C3.67635 53.9494 4.16691 52.723 5.08262 51.7092C6.03104 50.6626 7.27379 49.8614 8.81088 49.3054C10.3807 48.7495 12.0976 48.4715 13.9618 48.4715C15.8259 48.4715 17.5101 48.8149 19.0145 49.5016C20.5516 50.1557 21.7617 51.1368 22.6447 52.445C23.5604 53.7205 23.9855 55.3393 23.9201 57.3016H21.7126C21.778 55.928 21.5327 54.7997 20.9768 53.9167C20.4208 53.0337 19.7177 52.3469 18.8674 51.8563C18.0171 51.3658 17.134 51.0387 16.2183 50.8752C15.3026 50.679 14.485 50.5809 13.7655 50.5809C11.509 50.5809 9.64483 51.0551 8.17315 52.0035C6.73417 52.9192 5.98198 54.0966 5.91657 55.5355C5.88387 56.7783 6.19456 57.7758 6.84864 58.528C7.50272 59.2801 8.38572 59.8852 9.49766 60.343C10.6096 60.7682 11.8196 61.1443 13.1278 61.4713C14.4687 61.7984 15.7932 62.1417 17.1013 62.5015C18.4095 62.8612 19.6032 63.3354 20.6824 63.9241C21.7944 64.5128 22.661 65.314 23.2824 66.3279C23.9365 67.309 24.2472 68.5844 24.2145 70.1542C24.1491 71.6586 23.6585 72.9341 22.7428 73.9806C21.8271 75.0271 20.617 75.8284 19.1126 76.3843C17.6083 76.9403 15.9076 77.2183 14.0108 77.2183ZM31.5112 76.5806H29.3036V48.962H31.5112V76.5806ZM31.1187 48.962H39.5073C42.5161 48.962 44.789 49.6815 46.3261 51.1205C47.8632 52.5268 48.6317 54.6689 48.6317 57.5468C48.6317 60.2286 47.8305 62.3053 46.228 63.7769C44.6582 65.2159 42.418 65.9354 39.5073 65.9354H31.0697V64.0222H39.3111C41.6658 64.0222 43.4645 63.4826 44.7072 62.4034C45.95 61.3241 46.5714 59.6889 46.5714 57.4978C46.5714 55.2739 45.9663 53.6224 44.7563 52.5431C43.5462 51.4639 41.7312 50.9243 39.3111 50.9243H31.1187V48.962ZM52.6236 76.5806V48.962H70.5781V51.0224H54.8802V61.6185H67.4386V63.5807H54.8802V74.6674H71.0197V76.5806H52.6236ZM95.5365 48.962H97.7441V76.5806H93.6234L77.7292 49.9922H77.6311V76.5806H75.4236V48.962H79.299L95.4384 75.5504H95.5365V48.962ZM106.247 74.6183C107.752 74.6183 108.913 74.6183 109.73 74.6183C110.548 74.6183 111.153 74.6183 111.545 74.6183C113.573 74.6183 115.421 74.4548 117.089 74.1278C118.757 73.8007 120.195 73.2121 121.406 72.3617C122.616 71.4787 123.531 70.2687 124.153 68.7316C124.774 67.1618 125.085 65.1669 125.085 62.7468C125.085 60.065 124.529 57.8575 123.417 56.1242C122.305 54.3909 120.735 53.0991 118.707 52.2488C116.68 51.3985 114.292 50.9733 111.545 50.9733H106.247V74.6183ZM127.488 62.7468C127.488 66.3769 126.802 69.2058 125.428 71.2335C124.087 73.2284 122.19 74.6183 119.738 75.4032C117.318 76.1881 114.456 76.5806 111.153 76.5806C110.662 76.5806 109.861 76.5806 108.749 76.5806C107.637 76.5806 106.051 76.5806 103.991 76.5806V48.962C106.182 48.962 107.817 48.962 108.896 48.962C109.975 48.962 110.728 48.962 111.153 48.962C114.456 48.962 117.318 49.4853 119.738 50.5318C122.19 51.5456 124.087 53.0664 125.428 55.094C126.802 57.1217 127.488 59.6726 127.488 62.7468ZM142.064 77.2183C140.625 77.2183 139.235 77.0384 137.894 76.6787C136.554 76.3516 135.327 75.8284 134.215 75.1089C133.103 74.3567 132.22 73.4246 131.566 72.3127C130.912 71.1681 130.569 69.7945 130.536 68.192H132.793C132.793 68.2901 132.825 68.5844 132.891 69.075C132.956 69.5656 133.12 70.1542 133.381 70.841C133.676 71.5278 134.15 72.1982 134.804 72.8523C135.491 73.5064 136.423 74.0624 137.6 74.5202C138.81 74.9454 140.347 75.1579 142.211 75.1579C143.912 75.1579 145.269 74.9617 146.283 74.5693C147.33 74.1441 148.114 73.6372 148.638 73.0485C149.161 72.4272 149.504 71.8385 149.668 71.2825C149.864 70.7265 149.962 70.3014 149.962 70.0071C149.995 68.7643 149.684 67.7668 149.03 67.0146C148.376 66.2297 147.493 65.6084 146.381 65.1505C145.269 64.66 144.059 64.2512 142.751 63.9241C141.443 63.5971 140.118 63.2537 138.777 62.8939C137.469 62.5015 136.259 62.0273 135.147 61.4713C134.035 60.8826 133.152 60.1141 132.498 59.1657C131.877 58.1846 131.599 56.9255 131.664 55.3884C131.73 53.9494 132.22 52.723 133.136 51.7092C134.084 50.6626 135.327 49.8614 136.864 49.3054C138.434 48.7495 140.151 48.4715 142.015 48.4715C143.879 48.4715 145.564 48.8149 147.068 49.5016C148.605 50.1557 149.815 51.1368 150.698 52.445C151.614 53.7205 152.039 55.3393 151.974 57.3016H149.766C149.831 55.928 149.586 54.7997 149.03 53.9167C148.474 53.0337 147.771 52.3469 146.921 51.8563C146.07 51.3658 145.187 51.0387 144.272 50.8752C143.356 50.679 142.538 50.5809 141.819 50.5809C139.562 50.5809 137.698 51.0551 136.227 52.0035C134.788 52.9192 134.035 54.0966 133.97 55.5355C133.937 56.7783 134.248 57.7758 134.902 58.528C135.556 59.2801 136.439 59.8852 137.551 60.343C138.663 60.7682 139.873 61.1443 141.181 61.4713C142.522 61.7984 143.847 62.1417 145.155 62.5015C146.463 62.8612 147.657 63.3354 148.736 63.9241C149.848 64.5128 150.714 65.314 151.336 66.3279C151.99 67.309 152.301 68.5844 152.268 70.1542C152.202 71.6586 151.712 72.9341 150.796 73.9806C149.881 75.0271 148.67 75.8284 147.166 76.3843C145.662 76.9403 143.961 77.2183 142.064 77.2183Z" fill="#222222"/>
</svg>
