<svg width="433" height="133" viewBox="0 0 433 133" fill="none" xmlns="http://www.w3.org/2000/svg">
<path d="M103.943 57.1245L107.846 46.5457L97.2668 50.4482L93.1001 43.2795L81.6207 57.0284L84.0103 34.4658L74.5842 36.5912L69.0366 26.3606L63.501 36.5912L54.0749 34.4658L56.4644 57.0284L44.973 43.2795L40.8063 50.4482L30.2395 46.5457L34.142 57.1245L26.9613 61.2912L55.78 85.3548H82.2931L111.124 61.2912L103.943 57.1245Z" fill="#222222"/>
<path d="M64.4483 92.271H73.6222C73.7903 92.271 73.9344 92.4031 73.9464 92.5712L75.2313 106.488C75.2433 106.68 75.0992 106.848 74.9071 106.848H63.1515C62.9593 106.848 62.8032 106.68 62.8272 106.488L64.1121 92.5712C64.1241 92.4031 64.2682 92.271 64.4363 92.271H64.4483Z" fill="#222222"/>
<path fill-rule="evenodd" clip-rule="evenodd" d="M54.1962 0H83.5966V0.0136312C88.0987 0.0136312 92.4917 1.43128 96.1343 4.07574L119.914 21.3465C123.556 23.991 126.271 27.7123 127.663 31.9925L136.749 59.9229C138.141 64.2031 138.141 68.8105 136.749 73.0907L127.663 101.021C126.271 105.288 123.556 109.023 119.914 111.667L96.1343 128.938C92.4917 131.582 88.0987 133 83.5966 133H54.1962C49.6941 133 45.3011 131.582 41.6584 128.938L17.879 111.667C14.2363 109.023 11.5214 105.301 10.1298 101.021L1.04368 73.0907C-0.347893 68.8105 -0.347893 64.2031 1.04368 59.9229L10.1298 31.9789C11.5214 27.7123 14.2363 23.9773 17.879 21.3329L41.6584 4.06211C45.3011 1.41765 49.6941 0 54.1962 0ZM55.9587 7.92022H81.8354V7.93223C85.798 7.93223 89.6645 9.18103 92.8705 11.5105L113.8 26.7244C117.006 29.0539 119.396 32.332 120.62 36.1024L128.618 60.7064C129.842 64.4768 129.842 68.5354 128.618 72.3059L120.62 96.9098C119.396 100.668 117.006 103.958 113.8 106.288L92.8705 121.502C89.6645 123.831 85.798 125.08 81.8354 125.08H55.9587C51.9961 125.08 48.1296 123.831 44.9235 121.502L23.994 106.288C20.7879 103.958 18.3984 100.68 17.1736 96.9098L9.1764 72.3059C7.9516 68.5354 7.9516 64.4768 9.1764 60.7064L17.1736 36.0904C18.3984 32.332 20.7879 29.0419 23.994 26.7124L44.9235 11.4985C48.1296 9.16903 51.9961 7.92022 55.9587 7.92022Z" fill="#222222"/>
<path d="M181.321 67.019C177.282 67.019 173.601 66.2011 170.278 64.5651C166.955 62.9292 164.297 60.4753 162.303 57.2034C160.36 53.8804 159.415 49.7906 159.466 44.9339C159.517 40.1283 160.488 36.0384 162.38 32.6643C164.322 29.2902 166.955 26.734 170.278 24.9958C173.601 23.2065 177.359 22.3119 181.551 22.3119C185.692 22.3119 189.219 23.0532 192.133 24.5357C195.047 26.0183 197.322 28.0121 198.958 30.5171C200.645 33.0222 201.744 35.7828 202.256 38.7991H192.67C192.363 36.6519 191.597 35.0415 190.37 33.9679C189.143 32.8432 187.711 32.0764 186.075 31.6674C184.49 31.2584 182.982 31.0539 181.551 31.0539C177.308 31.0539 174.087 32.2042 171.889 34.5047C169.69 36.8053 168.591 40.0516 168.591 44.2437C168.591 48.7425 169.665 52.2189 171.812 54.6728C173.959 57.1267 177.18 58.3537 181.474 58.3537C183.008 58.3537 184.567 58.1236 186.152 57.6635C187.788 57.2034 189.219 56.3854 190.446 55.2096C191.724 53.9826 192.517 52.2956 192.823 50.1484H202.409C201.898 53.2158 200.799 56.0531 199.112 58.6604C197.425 61.2166 195.098 63.2615 192.133 64.7952C189.219 66.2778 185.615 67.019 181.321 67.019ZM205.972 66.2522L219.086 23.0787H234.269L247.842 66.2522H237.95L226.907 26.913L215.941 66.2522H205.972ZM215.865 54.7495L215.635 47.6178H237.873L237.797 54.7495H215.865ZM282.36 23.0787H292.022V66.2522H274.308L262.882 27.143H262.729V66.2522H253.143V23.0787H269.554L282.207 62.1879H282.36V23.0787ZM297.71 66.2522L310.823 23.0787H326.006L339.579 66.2522H329.687L318.644 26.913L307.679 66.2522H297.71ZM307.602 54.7495L307.372 47.6178H329.61L329.534 54.7495H307.602ZM354.542 58.6604C356.229 58.6604 357.508 58.6604 358.377 58.6604C359.246 58.6604 359.859 58.6604 360.217 58.6604C362.569 58.6604 364.639 58.4815 366.429 58.1236C368.269 57.7146 369.828 56.9989 371.106 55.9765C372.384 54.954 373.356 53.5225 374.02 51.6821C374.736 49.8417 375.094 47.4645 375.094 44.5504C375.094 41.5342 374.48 39.0291 373.253 37.0353C372.078 35.0415 370.365 33.559 368.116 32.5876C365.917 31.5652 363.284 31.0539 360.217 31.0539H354.542V58.6604ZM384.91 44.6271C384.91 50.3018 383.785 54.7239 381.535 57.8936C379.286 61.0121 376.091 63.1848 371.95 64.4118C367.86 65.6387 363.054 66.2522 357.533 66.2522C356.664 66.2522 355.284 66.2522 353.392 66.2522C351.552 66.2522 348.893 66.2522 345.417 66.2522V23.0787C349.098 23.0787 351.833 23.0787 353.622 23.0787C355.412 23.0787 356.715 23.0787 357.533 23.0787C363.054 23.0787 367.86 23.8967 371.95 25.5326C376.091 27.1175 379.286 29.4947 381.535 32.6643C383.785 35.8339 384.91 39.8215 384.91 44.6271ZM389.297 66.2522L402.41 23.0787H417.593L431.167 66.2522H421.274L410.232 26.913L399.266 66.2522H389.297ZM399.189 54.7495L398.959 47.6178H421.198L421.121 54.7495H399.189Z" fill="#222222"/>
<path d="M173.461 110.982C171.774 110.982 170.144 110.771 168.572 110.349C167 109.966 165.562 109.352 164.258 108.509C162.955 107.627 161.92 106.534 161.153 105.23C160.386 103.888 159.983 102.278 159.945 100.399H162.591C162.591 100.514 162.629 100.859 162.706 101.435C162.782 102.01 162.974 102.7 163.281 103.505C163.626 104.31 164.182 105.096 164.949 105.863C165.754 106.63 166.847 107.282 168.227 107.819C169.646 108.317 171.448 108.566 173.633 108.566C175.627 108.566 177.218 108.336 178.407 107.876C179.634 107.378 180.554 106.783 181.167 106.093C181.781 105.365 182.183 104.674 182.375 104.023C182.605 103.371 182.72 102.872 182.72 102.527C182.759 101.07 182.394 99.9009 181.627 99.019C180.861 98.0988 179.825 97.3703 178.522 96.8335C177.218 96.2583 175.799 95.7791 174.266 95.3956C172.732 95.0122 171.179 94.6096 169.607 94.1879C168.073 93.7278 166.655 93.1718 165.351 92.52C164.048 91.8298 163.012 90.9288 162.245 89.8168C161.517 88.6666 161.191 87.1904 161.268 85.3883C161.344 83.7012 161.92 82.2634 162.993 81.0748C164.105 79.8478 165.562 78.9084 167.364 78.2566C169.205 77.6048 171.218 77.2789 173.403 77.2789C175.589 77.2789 177.563 77.6815 179.327 78.4867C181.129 79.2535 182.548 80.4038 183.583 81.9375C184.657 83.4328 185.155 85.3308 185.078 87.6313H182.49C182.567 86.0209 182.279 84.6981 181.627 83.6629C180.976 82.6276 180.151 81.8225 179.154 81.2473C178.158 80.6722 177.122 80.2888 176.049 80.0971C174.975 79.867 174.017 79.752 173.173 79.752C170.527 79.752 168.342 80.3079 166.616 81.4199C164.929 82.4935 164.048 83.8738 163.971 85.5608C163.933 87.0178 164.297 88.1873 165.064 89.0692C165.83 89.951 166.866 90.6604 168.169 91.1972C169.473 91.6956 170.892 92.1365 172.425 92.52C173.997 92.9034 175.55 93.306 177.084 93.7278C178.618 94.1495 180.017 94.7055 181.282 95.3956C182.586 96.0858 183.602 97.0252 184.331 98.2138C185.097 99.3641 185.462 100.859 185.423 102.7C185.347 104.464 184.772 105.959 183.698 107.186C182.624 108.413 181.206 109.352 179.442 110.004C177.678 110.656 175.684 110.982 173.461 110.982ZM193.978 110.234H191.39V77.854H193.978V110.234ZM193.518 77.854H203.353C206.88 77.854 209.545 78.6976 211.347 80.3846C213.149 82.0333 214.05 84.5448 214.05 87.9189C214.05 91.063 213.111 93.4977 211.232 95.2231C209.392 96.9102 206.765 97.7537 203.353 97.7537H193.46V95.5107H203.123C205.883 95.5107 207.992 94.878 209.449 93.6127C210.906 92.3474 211.635 90.4303 211.635 87.8614C211.635 85.2541 210.925 83.3178 209.507 82.0525C208.088 80.7872 205.96 80.1546 203.123 80.1546H193.518V77.854ZM218.73 110.234V77.854H239.78V80.2696H221.376V92.6925H236.1V94.9931H221.376V107.991H240.298V110.234H218.73ZM269.042 77.854H271.63V110.234H266.799L248.164 79.0618H248.049V110.234H245.461V77.854H250.005L268.927 109.026H269.042V77.854ZM281.599 107.934C283.363 107.934 284.724 107.934 285.682 107.934C286.641 107.934 287.35 107.934 287.81 107.934C290.188 107.934 292.354 107.742 294.309 107.358C296.265 106.975 297.952 106.285 299.371 105.288C300.789 104.253 301.863 102.834 302.591 101.032C303.32 99.1915 303.684 96.8527 303.684 94.0153C303.684 90.8713 303.032 88.2831 301.729 86.251C300.425 84.2189 298.585 82.7043 296.207 81.7074C293.83 80.7105 291.031 80.2121 287.81 80.2121H281.599V107.934ZM306.502 94.0153C306.502 98.2713 305.697 101.588 304.087 103.965C302.515 106.304 300.291 107.934 297.415 108.854C294.578 109.774 291.223 110.234 287.35 110.234C286.775 110.234 285.836 110.234 284.532 110.234C283.229 110.234 281.369 110.234 278.953 110.234V77.854C281.522 77.854 283.439 77.854 284.705 77.854C285.97 77.854 286.852 77.854 287.35 77.854C291.223 77.854 294.578 78.4675 297.415 79.6945C300.291 80.8831 302.515 82.666 304.087 85.0432C305.697 87.4204 306.502 90.4111 306.502 94.0153ZM323.591 110.982C321.904 110.982 320.274 110.771 318.702 110.349C317.13 109.966 315.693 109.352 314.389 108.509C313.085 107.627 312.05 106.534 311.283 105.23C310.516 103.888 310.114 102.278 310.075 100.399H312.721C312.721 100.514 312.759 100.859 312.836 101.435C312.913 102.01 313.104 102.7 313.411 103.505C313.756 104.31 314.312 105.096 315.079 105.863C315.884 106.63 316.977 107.282 318.357 107.819C319.776 108.317 321.578 108.566 323.764 108.566C325.757 108.566 327.349 108.336 328.537 107.876C329.764 107.378 330.684 106.783 331.298 106.093C331.911 105.365 332.314 104.674 332.506 104.023C332.736 103.371 332.851 102.872 332.851 102.527C332.889 101.07 332.525 99.9009 331.758 99.019C330.991 98.0988 329.956 97.3703 328.652 96.8335C327.349 96.2583 325.93 95.7791 324.396 95.3956C322.863 95.0122 321.31 94.6096 319.738 94.1879C318.204 93.7278 316.785 93.1718 315.482 92.52C314.178 91.8298 313.143 90.9288 312.376 89.8168C311.647 88.6666 311.321 87.1904 311.398 85.3883C311.475 83.7012 312.05 82.2634 313.124 81.0748C314.236 79.8478 315.693 78.9084 317.495 78.2566C319.335 77.6048 321.348 77.2789 323.534 77.2789C325.719 77.2789 327.694 77.6815 329.457 78.4867C331.26 79.2535 332.678 80.4038 333.713 81.9375C334.787 83.4328 335.285 85.3308 335.209 87.6313H332.621C332.697 86.0209 332.41 84.6981 331.758 83.6629C331.106 82.6276 330.282 81.8225 329.285 81.2473C328.288 80.6722 327.253 80.2888 326.179 80.0971C325.106 79.867 324.147 79.752 323.303 79.752C320.658 79.752 318.472 80.3079 316.747 81.4199C315.06 82.4935 314.178 83.8738 314.101 85.5608C314.063 87.0178 314.427 88.1873 315.194 89.0692C315.961 89.951 316.996 90.6604 318.3 91.1972C319.603 91.6956 321.022 92.1365 322.556 92.52C324.128 92.9034 325.681 93.306 327.214 93.7278C328.748 94.1495 330.148 94.7055 331.413 95.3956C332.717 96.0858 333.733 97.0252 334.461 98.2138C335.228 99.3641 335.592 100.859 335.554 102.7C335.477 104.464 334.902 105.959 333.828 107.186C332.755 108.413 331.336 109.352 329.572 110.004C327.809 110.656 325.815 110.982 323.591 110.982Z" fill="#222222"/>
</svg>
